# xmcd
#
# Track frame offsets:
#	150
#	21735
#	39355
#	50450
#	82277
#	132580
#
# Disc length: 2088 seconds
#
# Revision: 4
# Processed by: cddbd v1.5PL3 Copyright (c) Steve Scherf et al.
# Submitted via: CDex 1.50Beta5
#
DISCID=55082606
DTITLE=Steve Marcus - Tomorrow Never Knows
DYEAR=1968
DGENRE=Jazz
TTITLE0=Eight Miles High
TTITLE1=Mellow Yellow
TTITLE2=Listen People
TTITLE3=Rain
TTITLE4=Tomorrow Never Knows
TTITLE5=Half A Heart
EXTD=
EXTT0=
EXTT1=
EXTT2=
EXTT3=
EXTT4=
EXTT5=
PLAYORDER=
